PathFileType	4	(X/Y/Z)	/Users/itak/Documents/Research/Walk-IL/dataset/trc/00575_00009.trc
DataRate	CameraRate	NumFrames	NumMarkers	Units	OrigDataRate	OrigDataStartFrame	OrigNumFrames
100.000000	100.000000	4	53	mm	100.000000	130	521
Frame#	Time	RPSI			LPSI			L3			STRN			T10			C7			CLAV			RBAK			LBAK			LSHO			LUPA			LAEL			LAOL			LWTS			LWPS			LFRA			LIFD			LHPS			LHTS			RSHO			RUPA			RAEL			RAOL			RWTS			RWPS			RFRA			RIFD			RHTS			RHPS			RBHD			RFHD			LBHD			LHIP			RHIP			RASI			LASI			LKNE			LTHI			LANK			LTIP			LTOE			LMT1			LMT5			LHEE			RKNE			RTHI			RANK			RTIP			RTOE			RMT1			RMT5			RHEE			LFHD			
		X1	Y1	Z1	X2	Y2	Z2	X3	Y3	Z3	X4	Y4	Z4	X5	Y5	Z5	X6	Y6	Z6	X7	Y7	Z7	X8	Y8	Z8	X9	Y9	Z9	X10	Y10	Z10	X11	Y11	Z11	X12	Y12	Z12	X13	Y13	Z13	X14	Y14	Z14	X15	Y15	Z15	X16	Y16	Z16	X17	Y17	Z17	X18	Y18	Z18	X19	Y19	Z19	X20	Y20	Z20	X21	Y21	Z21	X22	Y22	Z22	X23	Y23	Z23	X24	Y24	Z24	X25	Y25	Z25	X26	Y26	Z26	X27	Y27	Z27	X28	Y28	Z28	X29	Y29	Z29	X30	Y30	Z30	X31	Y31	Z31	X32	Y32	Z32	X33	Y33	Z33	X34	Y34	Z34	X35	Y35	Z35	X36	Y36	Z36	X37	Y37	Z37	X38	Y38	Z38	X39	Y39	Z39	X40	Y40	Z40	X41	Y41	Z41	X42	Y42	Z42	X43	Y43	Z43	X44	Y44	Z44	X45	Y45	Z45	X46	Y46	Z46	X47	Y47	Z47	X48	Y48	Z48	X49	Y49	Z49	X50	Y50	Z50	X51	Y51	Z51	X52	Y52	Z52	X53	Y53	Z53	

131	1.3	-1137.70654296875	1001.815246582031	-166.2494964599609	-1059.597900390625	1004.728637695312	-274.7651062011719	-1088.56591796875	1105.458618164062	-209.7688140869141	-869.0748901367188	1268.82275390625	-73.55438995361328	-1086.06689453125	1229.8798828125	-201.4014282226562	-1029.466430664062	1496.454711914062	-141.9861602783203	-876.14501953125	1381.655395507812	-75.12279510498047	-1140.860229492188	1377.051879882812	-110.2968063354492	-1018.305053710938	1451.0859375	-242.3341217041016	-891.5902099609375	1468.54736328125	-268.4171752929688	-879.8871459960938	1347.138305664062	-354.9841918945312	-885.2099609375	1128.040405273438	-391.1908874511719	-985.4976196289062	1133.352783203125	-379.8650817871094	-859.094482421875	871.5213012695312	-335.6405639648438	-871.459716796875	859.6528930664062	-420.9031982421875	-874.17626953125	1039.697509765625	-397.6004943847656	-901.8206787109375	714.4395141601562	-347.6995849609375	-878.7569580078125	799.1080322265625	-416.8651123046875	-851.3435668945312	791.7130126953125	-355.1605834960938	-1055.72509765625	1448.857788085938	19.59605598449707	-1108.841552734375	1384.173461914062	65.71612548828125	-1155.197509765625	1095.068969726562	81.87559509277344	-1190.522705078125	1085.430053710938	29.72737121582031	-1043.264282226562	859.8885498046875	98.65052795410156	-1118.294311523438	844.7797241210938	131.1778259277344	-1155.853881835938	1039.137573242188	89.18230438232422	-1055.631103515625	687.2761840820312	90.54253387451172	-1036.880981445312	765.372802734375	119.0957565307617	-1110.75537109375	769.1177978515625	133.0936889648438	-993.5921020507812	1662.006591796875	-40.84243392944336	-873.4110717773438	1683.434326171875	28.36418914794922	-896.4614868164062	1665.930419921875	-174.7359008789062	-870.5853271484375	932.32177734375	-298.2404174804688	-1118.198974609375	919.2042846679688	1.175559878349304	-1012.178955078125	949.262451171875	11.35681343078613	-848.712158203125	955.5518798828125	-208.8174285888672	-739.5674438476562	536.7619018554688	-116.1739959716797	-778.5975341796875	688.5379028320312	-189.9714660644531	-757.1522827148438	50.21435546875	-139.0267486572266	-758.4172973632812	277.7084045410156	-147.6782073974609	-635.6478881835938	101.5973510742188	30.22179222106934	-711.9530029296875	84.90422821044922	14.35749340057373	-655.3323364257812	73.70687103271484	-74.38993835449219	-843.4905395507812	39.14947509765625	-139.0414733886719	-1084.240966796875	477.5684204101562	-66.90070343017578	-1087.3935546875	762.0933227539062	8.980725288391113	-1191.044555664062	35.32341384887695	-199.3455200195312	-1089.798950195312	335.0702819824219	-101.1516571044922	-987.57763671875	38.8417854309082	-102.6940307617188	-1014.574584960938	36.29941940307617	-174.1898040771484	-1093.957153320312	39.33552551269531	-106.101692199707	-1203.296020507812	23.16850662231445	-274.9840698242188	-793.1961059570312	1688.43408203125	-92.48313903808594	
132	1.31	-1133.115112304688	1000.899047851562	-163.6602020263672	-1054.405029296875	1003.461181640625	-271.9131164550781	-1084.004272460938	1104.589721679688	-207.1051940917969	-864.5269165039062	1267.79443359375	-70.39656829833984	-1081.4580078125	1229.0087890625	-198.6359252929688	-1024.69677734375	1495.518432617188	-139.0189361572266	-871.5166015625	1380.643188476562	-71.96702575683594	-1136.242431640625	1376.178833007812	-107.5064086914062	-1013.429565429688	1450.17578125	-239.3233337402344	-886.6588745117188	1467.486450195312	-265.3003234863281	-875.2523803710938	1346.102416992188	-351.9065551757812	-881.320068359375	1127.163696289062	-388.7077026367188	-981.419189453125	1132.413818359375	-376.1269836425781	-854.4948120117188	870.4090576171875	-334.4385070800781	-867.9006958007812	858.8657836914062	-419.5748291015625	-870.44287109375	1038.86572265625	-395.51611328125	-897.9156494140625	713.5137939453125	-346.8879089355469	-875.4090576171875	798.3016967773438	-415.6312255859375	-847.2216796875	790.6463012695312	-354.3658447265625	-1051.2529296875	1447.897216796875	22.53633499145508	-1104.440551757812	1383.217895507812	68.56039428710938	-1150.867309570312	1094.101440429688	84.56212615966797	-1186.035522460938	1084.464233398438	32.27184677124023	-1038.931762695312	858.9393920898438	101.6744537353516	-1114.040649414062	843.8203735351562	133.9700164794922	-1151.519775390625	1038.161254882812	91.83187103271484	-1051.178100585938	686.3209228515625	93.42682647705078	-1032.53173828125	764.4236450195312	122.0656433105469	-1106.49462890625	768.1430053710938	135.9118347167969	-988.8471069335938	1661.050170898438	-37.69778442382812	-868.7921752929688	1682.282958984375	31.74448394775391	-891.543701171875	1664.961181640625	-171.4993286132812	-865.69287109375	931.5057373046875	-294.9841613769531	-1114.184448242188	918.2928466796875	3.815427780151367	-1008.167053222656	948.2374267578125	14.28255271911621	-844.0720825195312	954.6235961914062	-205.4262084960938	-734.2872924804688	536.621826171875	-112.2235565185547	-773.3610229492188	688.098388671875	-186.5117034912109	-745.404052734375	49.61078643798828	-128.4581756591797	-749.8118286132812	277.2174987792969	-140.5646667480469	-624.5882568359375	104.1970138549805	40.23444366455078	-700.8450927734375	86.82074737548828	24.62189674377441	-643.8522338867188	74.78741455078125	-63.95791625976562	-831.5769653320312	37.90067291259766	-128.5796356201172	-1082.115844726562	476.7950439453125	-65.47597503662109	-1083.824340820312	761.1262817382812	11.27365779876709	-1190.991088867188	35.36767959594727	-199.3612518310547	-1088.341674804688	334.4337158203125	-100.2844924926758	-987.599853515625	38.80607604980469	-102.5882568359375	-1014.5341796875	36.29170608520508	-174.1859741210938	-1093.97412109375	39.30823516845703	-106.0125045776367	-1203.251953125	23.24814224243164	-275.0364379882812	-788.3290405273438	1687.329956054688	-89.13713073730469	
133	1.32	-1128.346313476562	999.9139404296875	-160.9856567382812	-1049.027465820312	1002.137023925781	-268.9808654785156	-1079.25732421875	1103.638671875	-204.3714752197266	-859.8526000976562	1266.722534179688	-67.13360595703125	-1076.680419921875	1228.064453125	-195.8309631347656	-1019.804016113281	1494.518676757812	-136.0243835449219	-866.75439453125	1379.590087890625	-68.75254821777344	-1131.49072265625	1375.240966796875	-104.7073669433594	-1008.407836914062	1449.1904296875	-236.2817230224609	-881.5840454101562	1466.344970703125	-262.1409606933594	-870.4843139648438	1344.946044921875	-348.7545776367188	-877.330810546875	1126.196166992188	-386.1647644042969	-977.1947021484375	1131.295654296875	-372.0884704589844	-849.4580078125	869.2388916015625	-333.3018188476562	-864.1517944335938	858.010986328125	-418.2538452148438	-866.5726318359375	1037.948852539062	-393.3971862792969	-893.5541381835938	712.5413208007812	-346.1639709472656	-871.7924194335938	797.4235229492188	-414.3896179199219	-842.6439208984375	789.5325927734375	-353.65869140625	-1046.683471679688	1446.892333984375	25.49509429931641	-1099.946899414062	1382.221801757812	71.41177368164062	-1146.432983398438	1093.08642578125	87.24924468994141	-1181.424682617188	1083.438232421875	34.80792999267578	-1034.442749023438	857.9820556640625	104.7994995117188	-1109.657958984375	842.8301391601562	136.8296661376953	-1147.0771484375	1037.139770507812	94.48955535888672	-1046.508911132812	685.3593139648438	96.45722198486328	-1028.007568359375	763.4759521484375	125.1585922241211	-1102.060424804688	767.1383666992188	138.7942657470703	-983.9945678710938	1660.065185546875	-34.54999923706055	-864.0875854492188	1681.109497070312	35.15369415283203	-886.4932250976562	1663.935180664062	-168.2328491210938	-860.6180419921875	930.5856323242188	-291.5906677246094	-1110.03369140625	917.3411865234375	6.5494704246521	-1004.015625	947.1624145507812	17.29798698425293	-839.220458984375	953.6253662109375	-201.9356231689453	-728.8912963867188	536.3457641601562	-108.1760101318359	-767.9431762695312	687.5615844726562	-182.9430389404297	-733.874755859375	49.10186386108398	-118.2472991943359	-741.2848510742188	276.7130126953125	-133.5804138183594	-613.6470947265625	106.6705322265625	49.80363464355469	-689.8455200195312	88.65433502197266	34.49308013916016	-632.5606079101562	75.81526184082031	-53.98834991455078	-819.8974609375	36.76308059692383	-118.3959197998047	-1079.939086914062	475.9966125488281	-64.01321411132812	-1080.123901367188	760.1217651367188	13.62656021118164	-1190.92431640625	35.42325592041016	-199.3739318847656	-1086.870849609375	333.7924499511719	-99.36575317382812	-987.6195068359375	38.76308441162109	-102.4557266235352	-1014.484191894531	36.28391265869141	-174.1681213378906	-1093.998657226562	39.26465606689453	-105.8941497802734	-1203.195678710938	23.35448455810547	-275.0747985839844	-783.3681030273438	1686.177856445312	-85.72560882568359	
134	1.33	-1123.396118164062	998.8648071289062	-158.2320098876953	-1043.50390625	1000.798156738281	-265.9788208007812	-1074.31201171875	1102.605102539062	-201.5701446533203	-855.0516967773438	1265.611572265625	-63.7622184753418	-1071.72705078125	1227.045043945312	-192.9881286621094	-1014.788452148438	1493.45849609375	-133.0005493164062	-861.8633422851562	1378.499633789062	-65.474365234375	-1126.603881835938	1374.241577148438	-101.899299621582	-1003.241943359375	1448.130859375	-233.2073974609375	-876.3662109375	1465.130737304688	-258.9429016113281	-865.5745239257812	1343.671264648438	-345.5252685546875	-873.2232055664062	1125.133911132812	-383.541259765625	-972.7975463867188	1129.996704101562	-367.7421875	-843.9994506835938	868.00634765625	-332.236083984375	-860.2305297851562	857.091552734375	-416.9349670410156	-862.5530395507812	1036.943969726562	-391.228515625	-888.7521362304688	711.5108642578125	-345.5386962890625	-867.9134521484375	796.4725341796875	-413.1408386230469	-837.6262817382812	788.3607788085938	-353.0500793457031	-1042.012939453125	1445.845581054688	28.47164344787598	-1095.358032226562	1381.186767578125	74.27009582519531	-1141.89306640625	1092.024169921875	89.93236541748047	-1176.684814453125	1082.353759765625	37.33556365966797	-1029.802978515625	857.0184936523438	108.0303726196289	-1105.1494140625	841.8110961914062	139.7566986083984	-1142.528076171875	1036.0751953125	97.15866851806641	-1041.620483398438	684.3905639648438	99.63932037353516	-1023.320556640625	762.5304565429688	128.3885498046875	-1097.457153320312	766.1083984375	141.7438354492188	-979.041259765625	1659.05419921875	-31.40105056762695	-859.2908935546875	1679.921630859375	38.58705902099609	-881.3146362304688	1662.8623046875	-164.9384307861328	-855.3418579101562	929.5689086914062	-288.0611877441406	-1105.744995117188	916.3519897460938	9.36784553527832	-999.724853515625	946.0393676757812	20.40181350708008	-834.1626586914062	952.5573120117188	-198.34130859375	-723.3615112304688	535.9501342773438	-104.019416809082	-762.3541870117188	686.9267578125	-179.2604827880859	-722.6075439453125	48.6702995300293	-108.4452896118164	-732.845947265625	276.1828308105469	-126.7394256591797	-602.8754272460938	108.9975891113281	58.89776611328125	-678.9904174804688	90.37213134765625	43.91349411010742	-621.5017700195312	76.77390289306641	-44.53364181518555	-808.5003051757812	35.70376205444336	-108.5378875732422	-1077.70556640625	475.1766662597656	-62.51920700073242	-1076.2939453125	759.08447265625	16.02981758117676	-1190.84375	35.4925422668457	-199.382080078125	-1085.386352539062	333.1485595703125	-98.39802551269531	-987.6336669921875	38.71032333374023	-102.3042984008789	-1014.433471679688	36.27621078491211	-174.1315155029297	-1094.031860351562	39.20133590698242	-105.7466354370117	-1203.125732421875	23.50006484985352	-275.0893249511719	-778.3211059570312	1684.977905273438	-82.24470520019531	
